<svg xmlns="http://www.w3.org/2000/svg" xmlns:xlink="http://www.w3.org/1999/xlink" viewBox="0,0,256,256" width="150px" height="150px" fill-rule="nonzero"><g fill="#6fffe9" fill-rule="nonzero" stroke="none" stroke-width="1" stroke-linecap="butt" stroke-linejoin="miter" stroke-miterlimit="10" stroke-dasharray="" stroke-dashoffset="0" font-family="none" font-weight="none" font-size="none" text-anchor="none" style="mix-blend-mode: normal"><g transform="scale(5.12,5.12)"><path d="M35.5,2c-0.634,0 -1.22556,0.24134 -1.66797,0.63867c-0.0064,0.00616 -0.09252,0.09118 -0.125,0.12695c-0.03324,0.03661 -0.07763,0.0887 -0.13672,0.1543c-0.11817,0.13119 -0.28932,0.31938 -0.50391,0.55859c-0.42918,0.47844 -1.0364,1.15823 -1.76367,1.9707c-1.45453,1.62495 -3.38571,3.78434 -5.31445,5.94141l-7.06836,7.90625c-1.76078,-1.42994 -3.72732,-3.02599 -5.13086,-4.16602c-1.33202,-1.08193 -2.44419,-1.98527 -3.22851,-2.62305c-0.39216,-0.31888 -0.70234,-0.57197 -0.91602,-0.74609c-0.10684,-0.08706 -0.18965,-0.15499 -0.24609,-0.20117c-0.02449,-0.02004 -0.04277,-0.03351 -0.05664,-0.04492l-0.00195,-0.00195h-0.00195c-0.35233,-0.31606 -0.82731,-0.51367 -1.33789,-0.51367c-0.38905,0 -0.49347,0.07872 -0.69141,0.15039c-0.19793,0.07167 -0.41257,0.16233 -0.64844,0.26758c-0.47173,0.21049 -1.02194,0.48103 -1.55469,0.75c-1.06549,0.53795 -2.05664,1.07226 -2.05664,1.07226l0.00586,0.01172c-0.62207,0.34161 -1.05469,0.99734 -1.05469,1.74805v21c0,0.78371 0.46994,1.4663 1.13672,1.79297l-0.00391,0.00781c0,0 0.91852,0.4682 1.88477,0.95508c0.48312,0.24344 0.97931,0.49155 1.37891,0.68945c0.39959,0.1979 0.62278,0.3149 0.85352,0.4082c0.23062,0.09344 0.48667,0.14648 0.75,0.14648c0.35204,0 0.6925,-0.09625 0.98438,-0.26172l0.00195,0.00195c0.0002,-0.00011 0.09157,-0.0596 0.10352,-0.06836c0.01194,-0.0088 0.01851,-0.01181 0.02344,-0.01562c0.00986,-0.0076 0.01409,-0.01322 0.01953,-0.01758c0.01088,-0.0087 0.02105,-0.01545 0.0332,-0.02539c0.0243,-0.01989 0.05679,-0.04625 0.09766,-0.08008c0.08173,-0.06766 0.19828,-0.16432 0.3457,-0.28711c0.29485,-0.24558 0.71129,-0.59427 1.21094,-1.01172c0.9993,-0.83489 2.32662,-1.94536 3.65234,-3.05469c2.29273,-1.9185 4.00289,-3.35075 4.58008,-3.83398c3.6211,3.93039 7.24542,7.8642 9.97656,10.82617c1.40211,1.52061 2.57577,2.79281 3.4043,3.68945c0.41426,0.44832 0.7424,0.80279 0.9707,1.04883c0.11415,0.12302 0.20227,0.21937 0.26563,0.28711c0.03168,0.03387 0.05804,0.0589 0.07813,0.08008c0.02009,0.02117 -0.04278,-0.0291 0.08789,0.08789l0.00195,0.00195c0.44077,0.39253 1.0302,0.63281 1.66211,0.63281c0.37074,0 0.72098,-0.08819 1.03906,-0.23633l0.00391,0.00781c0,0 2.40508,-1.2442 4.8457,-2.50977c1.22031,-0.63278 2.44941,-1.27118 3.39258,-1.76172c0.47158,-0.24527 0.87196,-0.45467 1.16406,-0.60742c0.2921,-0.15275 0.40921,-0.21061 0.54297,-0.28711c0.90427,-0.51737 1.51172,-1.49767 1.51172,-2.60547v-30c0,-1.02816 -0.52417,-1.94777 -1.32227,-2.48633c-0.1357,-0.09189 -0.1496,-0.0908 -0.24414,-0.14258c-0.09454,-0.05178 -0.21769,-0.11766 -0.36719,-0.19727c-0.299,-0.1592 -0.70457,-0.37337 -1.18164,-0.62305c-0.95413,-0.49936 -2.19391,-1.14369 -3.42383,-1.78125c-2.45905,-1.27472 -4.87543,-2.5207 -4.87695,-2.52148h-0.00195c-0.32885,-0.15767 -0.69829,-0.24805 -1.08203,-0.24805zM35.5,4c0.1095,0 0.1981,0.02918 0.2793,0.08398c0.13446,0.09099 0.2207,0.23521 0.2207,0.41602v10.0332l-11.29102,9.46484c-0.58715,-0.47661 -0.59014,-0.47881 -1.18164,-0.95898c-1.10804,-0.89951 -1.97094,-1.60007 -3.05273,-2.47852c0.60567,-0.67799 3.4965,-3.91529 7.00391,-7.83789c1.92863,-2.15693 3.8604,-4.31699 5.31445,-5.94141c0.72703,-0.81221 1.33543,-1.48941 1.76367,-1.9668c0.21412,-0.2387 0.38169,-0.42747 0.49805,-0.55664c0.05257,-0.05837 0.09148,-0.1021 0.12109,-0.13477c0.08653,-0.07524 0.1935,-0.12305 0.32422,-0.12305zM38,5.23242c0.9225,0.47624 1.26028,0.64859 2.54102,1.3125c1.22871,0.63694 2.46832,1.28228 3.41797,1.7793c0.47483,0.24851 0.87681,0.4602 1.16797,0.61523c0.14558,0.07752 0.26347,0.1405 0.3457,0.18555c0.08223,0.04504 0.17982,0.10981 0.08398,0.04492h0.00195v0.00195c0.26587,0.17944 0.44141,0.47629 0.44141,0.82813v30c0,0.3802 -0.20413,0.69651 -0.50586,0.86914c0.06076,-0.03475 -0.18695,0.1005 -0.47656,0.25195c-0.28961,0.15145 -0.68732,0.35861 -1.1582,0.60352c-0.94177,0.48981 -2.17264,1.12913 -3.39258,1.76172c-1.243,0.64455 -1.55607,0.80582 -2.4668,1.27734zM8.02734,13.02344c0.00763,0.00602 0.02545,0.0213 0.03516,0.0293c0.01735,0.0143 0.03916,0.03275 0.06836,0.05664c0.05841,0.04779 0.14263,0.11563 0.25,0.20313c0.21474,0.17499 0.52358,0.42698 0.91602,0.74609c0.78488,0.63822 1.8983,1.54295 3.23047,2.625c2.66433,2.1641 6.2052,5.03849 9.74023,7.9082c6.87468,5.58082 13.35858,10.84311 13.73242,11.14648v9.76172c0,0.19293 -0.10162,0.34586 -0.25195,0.42969c-0.00176,0.00091 -0.06955,0.03672 -0.07031,0.03711c-0.05511,0.01966 -0.11373,0.0332 -0.17773,0.0332c-0.13175,0 -0.23787,-0.04614 -0.32617,-0.12305c-0.01309,-0.01389 -0.02356,-0.02614 -0.04297,-0.04687c-0.05989,-0.06403 -0.1485,-0.15924 -0.26172,-0.28125c-0.22643,-0.24402 -0.55302,-0.59712 -0.9668,-1.04492c-0.82756,-0.8956 -2.00047,-2.16714 -3.40234,-3.6875c-2.80375,-3.04072 -6.52572,-7.07913 -10.24414,-11.11523c-3.71842,-4.03611 -7.43334,-8.06927 -10.22461,-11.09766c-1.39563,-1.51419 -2.56016,-2.77712 -3.37891,-3.66406c-0.35387,-0.38335 -0.61049,-0.65956 -0.82617,-0.89258c0.09097,-0.04643 0.08707,-0.04699 0.17969,-0.09375c0.51701,-0.26103 1.04967,-0.52198 1.46875,-0.70898c0.20954,-0.0935 0.39336,-0.16862 0.51563,-0.21289c0.01568,-0.00568 0.02175,-0.00387 0.03711,-0.00781zM4,15.01758c0.05661,0.06082 0.13019,0.13976 0.23047,0.24805c0.22102,0.23867 0.54411,0.58621 0.95313,1.0293c0.43999,0.47664 1.19421,1.29538 1.81641,1.9707v14.375l-2.99609,3.35352c-0.00192,0.00315 -0.00214,0.00586 -0.00391,0.00586zM36,17.14258v16.01953c-1.06729,-0.86612 -5.03826,-4.08965 -9.70898,-7.88086zM9,20.43555c1.26813,1.37596 2.98519,3.24079 4.51953,4.90625l-4.51953,5.05859zM14.88086,26.81836c0.98622,1.07054 1.79363,1.94856 2.81445,3.05664c-0.62213,0.52087 -2.25071,1.88443 -4.50586,3.77148c-1.32553,1.10917 -2.65187,2.2185 -3.65039,3.05273c-0.49926,0.41712 -0.91567,0.76546 -1.20898,1.00977c-0.14666,0.12215 -0.26305,0.21801 -0.3418,0.2832l-0.00195,0.00195c0.0316,0.01197 -0.3184,-0.15126 -0.70312,-0.3418c-0.39203,-0.19416 -0.88436,-0.43933 -1.36523,-0.68164c-0.0371,-0.01869 -0.03535,-0.0185 -0.07227,-0.03711zM8.00977,37.99414l0.46094,0.82422l-0.47266,-0.81641l0.00195,-0.00195c0.00144,-0.00093 0.00978,-0.00587 0.00977,-0.00586z"></path></g></g></svg>